# xmcd
#
# Track frame offsets:
#	150
#	13052
#	28432
#	41806
#	61351
#	76774
#	91184
#	111111
#	131160
#	152610
#	165806
#	185012
#
# Disc length: 2754 seconds
#
# Revision: 1
# Processed by: cddbd v1.5.2PL0 Copyright (c) Steve Scherf et al.
# Submitted via: audiograbber 1.83.01
#
DISCID=940ac00c
DTITLE=Carrie Underwood - Live in Little Rock
DYEAR=2002
DGENRE=Country
TTITLE0=Can't Get Enough (Live in Little Rock)
TTITLE1=Lesson In Leavin (Live in Little Rock)
TTITLE2=Hit Me With Your Best Shot (Live in Little Rock)
TTITLE3=Goodbye Earl (Live in Little Rock)
TTITLE4=Bye Bye (Live in Little Rock)
TTITLE5=Romeo Boy (Live in Little Rock)
TTITLE6=455 Rocket (Live in Little Rock)
TTITLE7=Show Me Heaven (Live in Little Rock)
TTITLE8=Proud Mary (Live in Little Rock)
TTITLE9=If I Fall You're Going Down With Me (Live in Little Rock)
TTITLE10=Be Myself (Live in Little Rock)
TTITLE11=Respect (Live in Little Rock)
EXTD=
EXTT0=
EXTT1=
EXTT2=
EXTT3=
EXTT4=
EXTT5=
EXTT6=
EXTT7=
EXTT8=
EXTT9=
EXTT10=
EXTT11=
PLAYORDER=
